<svg xmlns="http://www.w3.org/2000/svg" width="32" height="32" viewBox="0 0 32 32">
  <path d="M16.04 2.04c-7.18 0-13 5.42-13 12.1 0 3.36 1.44 6.42 3.78 8.62l-0.86 3.12c-0.18 0.64 0.5 1.18 1.1 0.86l3.52-1.8c1.62 0.54 3.38 0.82 5.2 0.82h0.26c7.18 0 13-5.42 13-12.1s-5.82-12.1-13-12.1v0.48zm0 0" fill="#ffffff"/>
  <path d="M22.78 19.38c-0.46 1.16-2.7 2.22-3.7 2.32-0.9 0.08-1.76 0.04-3.34-0.54-2.42-0.88-4.58-2.92-6.06-5.04-1.48-2.12-1.7-4.44-0.58-5.84 0.64-0.8 1.56-1.12 2.36-0.92 0.26 0.06 0.5 0.24 0.64 0.5l1.34 2.38c0.18 0.32 0.16 0.72-0.06 1.02l-0.68 0.96c-0.12 0.16-0.14 0.38-0.04 0.56 0.54 1.02 1.46 2.14 2.34 2.82 0.88 0.68 1.98 1.26 3.04 1.52 0.2 0.04 0.42-0.02 0.54-0.18l0.72-0.98c0.24-0.32 0.64-0.44 1-0.28l2.48 1.08c0.3 0.12 0.5 0.4 0.52 0.72-0.04 0.56-0.26 1.38-0.52 1.88z" fill="#7360f2"/>
</svg>
