<svg xmlns="http://www.w3.org/2000/svg" width="32" height="32" viewBox="0 0 32 32">
  <path d="M16 2C8.28 2 2 8.28 2 16c0 2.66.74 5.14 2.02 7.26L2 30l6.94-2c2.04 1.14 4.38 1.78 6.88 1.78h.02c7.72 0 14.02-6.28 14.02-14S23.74 2 16 2zm0 25.56c-2.26 0-4.46-.6-6.38-1.74l-.46-.28-4.74 1.24 1.26-4.62-.3-.48c-1.26-2-1.92-4.3-1.92-6.68 0-6.9 5.62-12.52 12.54-12.52S28.54 9.1 28.54 16 22.92 27.56 16 27.56zm6.88-9.4c-.38-.18-2.24-1.1-2.58-1.22-.34-.14-.6-.2-.84.2-.24.38-.96 1.22-1.18 1.48-.22.24-.44.28-.82.1-.38-.18-1.6-.6-3.04-1.88-1.12-1-1.88-2.24-2.1-2.62-.22-.38-.02-.58.16-.76.16-.16.38-.44.56-.66.18-.22.24-.38.36-.62.12-.26.06-.48-.02-.68-.1-.18-.84-2.04-1.16-2.8-.3-.74-.62-.64-.84-.64-.22 0-.48-.02-.74-.02s-.68.1-.96.48c-.34.38-1.28 1.24-1.28 3.04s1.3 3.52 1.48 3.76c.18.24 2.56 3.9 6.2 5.48.86.38 1.54.6 2.06.76.86.28 1.66.24 2.28.14.7-.1 2.14-.88 2.44-1.72.3-.84.3-1.56.22-1.72-.1-.14-.36-.24-.74-.42z" fill="#ffffff"/>
</svg>
